# xmcd
#
# Track frame offsets:
#	150
#	8482
#	22789
#	39798
#	55812
#	71293
#	86128
#	102094
#	114556
#	130137
#	144743
#	160092
#	172285
#	185185
#	205966
#	216496
#	232890
#	247446
#	263434
#	279408
#
# Disc length: 3860 seconds
#
# Revision: 2
# Processed by: cddbd v1.5.2PL0 Copyright (c) Steve Scherf et al.
# Submitted via: audiograbber 1.83.01
#
DISCID=1a0f1214
DTITLE=Various Artist - John Laws Country Collection Volume 5
DYEAR=2002
DGENRE=Country
TTITLE0=Johnny Cash - The Rebel - Johnny Yuma
TTITLE1=The Mavericks - Here Comes My Baby
TTITLE2=Collin Raye - Anyone Else
TTITLE3=Tim McGraw - Just To See You Smile
TTITLE4=George Strait - I Just Want To Dance With You
TTITLE5=Beccy Cole - Skip A Stone
TTITLE6=Randy Travis - A Man Ain't Made Of Stone
TTITLE7=Gary Allan - Runaway
TTITLE8=Kevin Bloody Wilson - Hello John (The John Laws Song) [Clean Version]
TTITLE9=Jo Dee Messina - I'm Alright
TTITLE10=Martina McBride - There You Are
TTITLE11=John Williamson - Buried In Her Bedclothes
TTITLE12=Sawyer Brown - Six Days On The Road
TTITLE13=Mary Chapin Carpenter - Almost Home
TTITLE14=George Jones - Ain't Love A Lot Like That
TTITLE15=David Kersh - Wonderful Tonight
TTITLE16=Clint Daniels - When I Grow Up
TTITLE17=John Prine and Iris Dement - In Spite Of Ourselves
TTITLE18=Don Williams - Ive Been Loved By The Best
TTITLE19=John Laws - The Rebel - Johnny Yuma
EXTD=YEAR: 2002 ID3G: 2
EXTT0=
EXTT1=
EXTT2=
EXTT3=
EXTT4=
EXTT5=
EXTT6=
EXTT7=
EXTT8=
EXTT9=
EXTT10=
EXTT11=
EXTT12=
EXTT13=
EXTT14=
EXTT15=
EXTT16=
EXTT17=
EXTT18=
EXTT19=
PLAYORDER=
